<svg width="22" height="22" viewBox="0 0 22 22" fill="none" xmlns="http://www.w3.org/2000/svg">
<path d="M11 0.333344C12.4145 0.333344 13.7711 0.895246 14.7713 1.89544C15.7715 2.89563 16.3334 4.25219 16.3334 5.66668C16.3334 7.08116 15.7715 8.43772 14.7713 9.43791C13.7711 10.4381 12.4145 11 11 11C9.58555 11 8.229 10.4381 7.2288 9.43791C6.22861 8.43772 5.66671 7.08116 5.66671 5.66668C5.66671 4.25219 6.22861 2.89563 7.2288 1.89544C8.229 0.895246 9.58555 0.333344 11 0.333344ZM11 13.6667C16.8934 13.6667 21.6667 16.0533 21.6667 19V21.6667H0.333374V19C0.333374 16.0533 5.10671 13.6667 11 13.6667Z" fill="black"/>
</svg>
