<svg width="29" height="24" viewBox="0 0 29 24" fill="none" xmlns="http://www.w3.org/2000/svg">
<path d="M16.3334 0C13.1508 0 10.0985 1.26428 7.84809 3.51472C5.59766 5.76515 4.33337 8.8174 4.33337 12H0.333374L5.52004 17.1867L5.61337 17.3733L11 12H7.00004C7.00004 6.84 11.1734 2.66667 16.3334 2.66667C21.4934 2.66667 25.6667 6.84 25.6667 12C25.6667 17.16 21.4934 21.3333 16.3334 21.3333C13.76 21.3333 11.4267 20.28 9.74671 18.5867L7.85337 20.48C8.96459 21.5974 10.286 22.4837 11.7415 23.0878C13.1969 23.6919 14.7575 24.002 16.3334 24C19.516 24 22.5682 22.7357 24.8187 20.4853C27.0691 18.2348 28.3334 15.1826 28.3334 12C28.3334 8.8174 27.0691 5.76515 24.8187 3.51472C22.5682 1.26428 19.516 4.74244e-08 16.3334 0ZM15 6.66667V13.3333L20.6667 16.6933L21.6934 14.9867L17 12.2V6.66667H15Z" fill="black"/>
</svg>
