<svg width="16" height="16" viewBox="0 0 32 32" fill="#242424" xmlns="http://www.w3.org/2000/svg">
<path  d="M16 16C16.7334 16 17.3614 15.7386 17.884 15.216C18.4058 14.6942 18.6667 14.0666 18.6667 13.3333C18.6667 12.6 18.4058 11.972 17.884 11.4493C17.3614 10.9275 16.7334 10.6666 16 10.6666C15.2667 10.6666 14.6392 10.9275 14.1174 11.4493C13.5947 11.972 13.3334 12.6 13.3334 13.3333C13.3334 14.0666 13.5947 14.6942 14.1174 15.216C14.6392 15.7386 15.2667 16 16 16ZM16 29.3333C12.4223 26.2888 9.75026 23.4608 7.98404 20.8493C6.21693 18.2386 5.33337 15.8222 5.33337 13.6C5.33337 10.2666 6.40582 7.61107 8.55071 5.63329C10.6947 3.65551 13.1778 2.66663 16 2.66663C18.8223 2.66663 21.3054 3.65551 23.4494 5.63329C25.5943 7.61107 26.6667 10.2666 26.6667 13.6C26.6667 15.8222 25.7836 18.2386 24.0174 20.8493C22.2503 23.4608 19.5778 26.2888 16 29.3333Z"/>
</svg>

